<svg width="78" height="55" viewBox="0 0 78 55" fill="none" xmlns="http://www.w3.org/2000/svg">
<path d="M34.0219 26.2624L35.2072 25.3141L35.2159 25.3074C35.463 25.1097 35.5877 25.01 35.7269 24.9389C35.8517 24.8751 35.9848 24.8287 36.1221 24.8005C36.2768 24.7688 36.438 24.7688 36.7616 24.7688H43.5135C44.383 24.7688 44.8183 24.7688 45.1507 24.5994C45.4434 24.4503 45.6815 24.212 45.8306 23.9193C46 23.5869 46 23.1522 46 22.2827V16.3664C46 15.4969 46 15.0615 45.8306 14.7291C45.6815 14.4364 45.4429 14.1986 45.1502 14.0494C44.8174 13.8799 44.3825 13.8799 43.5113 13.8799H34.489C33.6178 13.8799 33.1819 13.8799 32.8492 14.0494C32.5565 14.1986 32.3187 14.4364 32.1695 14.7291C32 15.0618 32 15.4977 32 16.3689V25.2908C32 26.1197 32 26.534 32.1699 26.7469C32.3177 26.932 32.5417 27.0397 32.7785 27.0395C33.0509 27.0392 33.3747 26.7802 34.0219 26.2624Z" stroke="#919AA6" stroke-width="1.55556" stroke-linecap="round" stroke-linejoin="round"/>
<path d="M34.929 41H34.0057L36.6761 33.7273H37.5852L40.2557 41H39.3324L37.1591 34.8778H37.1023L34.929 41ZM35.2699 38.1591H38.9915V38.9403H35.2699V38.1591ZM42.5692 33.7273V41H41.6885V33.7273H42.5692Z" fill="#919AA6"/>
</svg>
