<svg width="24" height="24" viewBox="0 0 12 12" fill="none" xmlns="http://www.w3.org/2000/svg">
<path d="M10.9238 3.28082C10.4634 2.77166 9.69423 2.51707 8.57839 2.51707H8.44839V2.49541C8.44839 1.58541 8.44839 0.45874 6.41173 0.45874H5.58839C3.55173 0.45874 3.55173 1.59082 3.55173 2.49541V2.52249H3.42173C2.30048 2.52249 1.53673 2.77707 1.07631 3.28624C0.540061 3.88207 0.556311 4.68374 0.610478 5.23082L0.615894 5.26874L0.657849 5.70927C0.665576 5.7904 0.709269 5.86367 0.77746 5.9083C0.907354 5.9933 1.12475 6.13343 1.25506 6.20582C1.33089 6.25457 1.41214 6.29791 1.49339 6.34124C2.41964 6.85041 3.43798 7.19166 4.47256 7.35957C4.52131 7.86874 4.74339 8.46457 5.92964 8.46457C7.11589 8.46457 7.34881 7.87416 7.38673 7.34874C8.49173 7.16999 9.55881 6.78541 10.523 6.22207C10.5555 6.20582 10.5771 6.18957 10.6042 6.17332C10.8191 6.05187 11.0421 5.90221 11.2453 5.75562C11.3065 5.71145 11.3456 5.64317 11.354 5.56814L11.3626 5.49082L11.3896 5.23624C11.3951 5.20374 11.3951 5.17666 11.4005 5.13874C11.4438 4.59166 11.433 3.84416 10.9238 3.28082ZM6.59048 6.99124C6.59048 7.56541 6.59048 7.65207 5.92423 7.65207C5.25798 7.65207 5.25798 7.54916 5.25798 6.99666V6.31416H6.59048V6.99124ZM4.32631 2.51707V2.49541C4.32631 1.57457 4.32631 1.23332 5.58839 1.23332H6.41173C7.67381 1.23332 7.67381 1.57999 7.67381 2.49541V2.52249H4.32631V2.51707Z" fill="white"/>
<path d="M10.8064 6.9394C10.998 6.84826 11.2186 7.00007 11.1994 7.21132L11.005 9.35297C10.8912 10.4363 10.447 11.5413 8.06371 11.5413H3.93621C1.55287 11.5413 1.10871 10.4363 0.994956 9.35839L0.810404 7.32831C0.791423 7.11952 1.00698 6.96787 1.19799 7.05429C1.81518 7.33353 2.95438 7.82894 3.6581 8.01325C3.7471 8.03656 3.81908 8.10026 3.85805 8.1836C4.18683 8.88675 4.89989 9.26089 5.92954 9.26089C6.94902 9.26089 7.67108 8.87234 8.00094 8.16746C8.03997 8.08406 8.11203 8.02038 8.20108 7.99695C8.94834 7.80032 10.1609 7.24656 10.8064 6.9394Z" fill="white"/>
</svg>
