<svg width="24" height="24" viewBox="0 0 17 17" fill="none" xmlns="http://www.w3.org/2000/svg">
<path d="M10.4333 0C11.2908 0 12.1125 0.340833 12.7183 0.946667L15.72 3.94833C16.02 4.24835 16.258 4.60451 16.4204 4.9965C16.5828 5.38849 16.6663 5.80863 16.6663 6.23292C16.6663 6.6572 16.5828 7.07734 16.4204 7.46933C16.258 7.86132 16.02 8.21749 15.72 8.5175L13.5175 10.72C12.9832 11.2538 12.2789 11.5837 11.5268 11.6525C10.7747 11.7213 10.0223 11.5246 9.4 11.0967L9.3125 11.0317L4.41083 15.9342C4.03147 16.3123 3.5407 16.5585 3.01083 16.6367L2.8275 16.6592L2.64333 16.6667H1.66667C0.821667 16.6667 0.110833 16.0342 0.00750005 15.1475L0 15V14.0233C0 13.4367 0.206667 12.8683 0.608333 12.39L0.7325 12.2558L1.0775 11.9108C1.23374 11.7545 1.44567 11.6667 1.66667 11.6667H2.5V10.8333C2.50003 10.6292 2.57496 10.4322 2.7106 10.2797C2.84623 10.1272 3.03312 10.0297 3.23583 10.0058L3.33333 10H4.16667V9.16667C4.16665 8.9835 4.22698 8.80543 4.33833 8.66L4.41083 8.57667L5.63417 7.3525L5.57083 7.26667C5.23811 6.78248 5.04285 6.21715 5.00583 5.63083L5 5.43417C5 4.57667 5.34083 3.755 5.94667 3.14917L8.14917 0.946667C8.75507 0.340954 9.5766 0.000474552 10.4333 0ZM10.8458 4.16667H10.8292C10.3871 4.16667 9.96322 4.34226 9.65066 4.65482C9.3381 4.96738 9.1625 5.39131 9.1625 5.83333C9.1625 6.27536 9.3381 6.69928 9.65066 7.01184C9.96322 7.3244 10.3871 7.5 10.8292 7.5H10.8458C11.2879 7.5 11.7118 7.3244 12.0243 7.01184C12.3369 6.69928 12.5125 6.27536 12.5125 5.83333C12.5125 5.39131 12.3369 4.96738 12.0243 4.65482C11.7118 4.34226 11.2879 4.16667 10.8458 4.16667Z" fill="white"/>
</svg>
