<svg width="15" height="15" viewBox="0 0 15 15" fill="none" xmlns="http://www.w3.org/2000/svg">
<path fill-rule="evenodd" clip-rule="evenodd" d="M11.9187 7.50625C12.0001 7.51775 12.0784 7.54518 12.1492 7.58697C12.2199 7.62877 12.2818 7.68411 12.3311 7.74982C12.3805 7.81554 12.4164 7.89034 12.4368 7.96995C12.4572 8.04955 12.4617 8.1324 12.45 8.21375C12.2933 9.29752 11.7854 10.2999 11.0041 11.0672C10.2229 11.8345 9.21142 12.3242 8.125 12.4613V13.125C8.125 13.2908 8.05915 13.4497 7.94194 13.5669C7.82473 13.6842 7.66576 13.75 7.5 13.75C7.33424 13.75 7.17527 13.6842 7.05806 13.5669C6.94085 13.4497 6.875 13.2908 6.875 13.125V12.4613C5.78873 12.324 4.77748 11.8342 3.99635 11.0669C3.21523 10.2997 2.70735 9.29738 2.55062 8.21375C2.52709 8.04965 2.5697 7.88292 2.6691 7.75023C2.76849 7.61755 2.91652 7.52979 3.08062 7.50625C3.24473 7.48271 3.41146 7.52533 3.54414 7.62472C3.67682 7.72412 3.76459 7.87215 3.78812 8.03625C3.91832 8.92776 4.36504 9.74263 5.0466 10.3319C5.72816 10.9211 6.59903 11.2454 7.5 11.2454C8.40097 11.2454 9.27184 10.9211 9.9534 10.3319C10.635 9.74263 11.0817 8.92776 11.2119 8.03625C11.2235 7.95499 11.2511 7.87682 11.2929 7.8062C11.3348 7.73559 11.3901 7.67391 11.4558 7.62469C11.5215 7.57548 11.5963 7.53969 11.6758 7.51936C11.7554 7.49904 11.8375 7.49458 11.9187 7.50625ZM7.5 1.25C8.3288 1.25 9.12366 1.57924 9.70971 2.16529C10.2958 2.75134 10.625 3.5462 10.625 4.375V7.5C10.625 8.3288 10.2958 9.12366 9.70971 9.70971C9.12366 10.2958 8.3288 10.625 7.5 10.625C6.6712 10.625 5.87634 10.2958 5.29029 9.70971C4.70424 9.12366 4.375 8.3288 4.375 7.5V4.375C4.375 3.5462 4.70424 2.75134 5.29029 2.16529C5.87634 1.57924 6.6712 1.25 7.5 1.25ZM7.5 2.5C7.00272 2.5 6.5258 2.69754 6.17417 3.04917C5.82254 3.40081 5.625 3.87772 5.625 4.375V7.5C5.625 7.99728 5.82254 8.47419 6.17417 8.82583C6.5258 9.17746 7.00272 9.375 7.5 9.375C7.99728 9.375 8.47419 9.17746 8.82583 8.82583C9.17746 8.47419 9.375 7.99728 9.375 7.5V4.375C9.375 3.87772 9.17746 3.40081 8.82583 3.04917C8.47419 2.69754 7.99728 2.5 7.5 2.5Z" fill="#98A7B9"/>
</svg>
