<svg width="78" height="55" viewBox="0 0 78 55" fill="none" xmlns="http://www.w3.org/2000/svg">
<path d="M32.0833 24.9998C32.0833 24.1158 32.4345 23.2679 33.0596 22.6428C33.6847 22.0177 34.5326 21.6665 35.4166 21.6665H42.0833C42.9674 21.6665 43.8152 22.0177 44.4403 22.6428C45.0655 23.2679 45.4166 24.1158 45.4166 24.9998C45.4166 25.4419 45.2411 25.8658 44.9285 26.1783C44.6159 26.4909 44.192 26.6665 43.75 26.6665H33.75C33.308 26.6665 32.884 26.4909 32.5715 26.1783C32.2589 25.8658 32.0833 25.4419 32.0833 24.9998Z" stroke="#919AA6" stroke-width="1.66667" stroke-linejoin="round"/>
<path d="M38.75 18.3333C40.1307 18.3333 41.25 17.214 41.25 15.8333C41.25 14.4525 40.1307 13.3333 38.75 13.3333C37.3693 13.3333 36.25 14.4525 36.25 15.8333C36.25 17.214 37.3693 18.3333 38.75 18.3333Z" stroke="#919AA6" stroke-width="1.66667"/>
<path d="M23.6307 42V34.7273H26.0881C26.6586 34.7273 27.125 34.8303 27.4872 35.0362C27.8518 35.2398 28.1217 35.5156 28.2969 35.8636C28.4721 36.2116 28.5597 36.5999 28.5597 37.0284C28.5597 37.4569 28.4721 37.8464 28.2969 38.1967C28.1241 38.5471 27.8565 38.8265 27.4943 39.0348C27.1321 39.2408 26.6681 39.3438 26.1023 39.3438H24.3409V38.5625H26.0739C26.4645 38.5625 26.7782 38.495 27.0149 38.3601C27.2517 38.2251 27.4233 38.0429 27.5298 37.8132C27.6387 37.5812 27.6932 37.3196 27.6932 37.0284C27.6932 36.7372 27.6387 36.4768 27.5298 36.2472C27.4233 36.0175 27.2505 35.8376 27.0114 35.7074C26.7723 35.5748 26.455 35.5085 26.0597 35.5085H24.5114V42H23.6307ZM30.1647 42V36.5455H30.9744V37.3693H31.0312C31.1306 37.0994 31.3105 36.8804 31.571 36.7124C31.8314 36.5443 32.1249 36.4602 32.4516 36.4602C32.5132 36.4602 32.5901 36.4614 32.6825 36.4638C32.7748 36.4661 32.8446 36.4697 32.892 36.4744V37.3267C32.8636 37.3196 32.7985 37.3089 32.6967 37.2947C32.5972 37.2782 32.4919 37.2699 32.3806 37.2699C32.1155 37.2699 31.8787 37.3255 31.6704 37.4368C31.4644 37.5457 31.3011 37.6972 31.1803 37.8913C31.062 38.0831 31.0028 38.3021 31.0028 38.5483V42H30.1647ZM36.2353 42.1136C35.7429 42.1136 35.3108 41.9964 34.9391 41.7621C34.5698 41.5277 34.281 41.1998 34.0727 40.7784C33.8667 40.357 33.7637 39.8646 33.7637 39.3011C33.7637 38.733 33.8667 38.237 34.0727 37.8132C34.281 37.3894 34.5698 37.0604 34.9391 36.826C35.3108 36.5916 35.7429 36.4744 36.2353 36.4744C36.7277 36.4744 37.1586 36.5916 37.5279 36.826C37.8996 37.0604 38.1884 37.3894 38.3944 37.8132C38.6027 38.237 38.7069 38.733 38.7069 39.3011C38.7069 39.8646 38.6027 40.357 38.3944 40.7784C38.1884 41.1998 37.8996 41.5277 37.5279 41.7621C37.1586 41.9964 36.7277 42.1136 36.2353 42.1136ZM36.2353 41.3608C36.6094 41.3608 36.9171 41.2649 37.1586 41.0732C37.4001 40.8814 37.5788 40.6293 37.6948 40.3168C37.8108 40.0043 37.8688 39.6657 37.8688 39.3011C37.8688 38.9366 37.8108 38.5968 37.6948 38.282C37.5788 37.9671 37.4001 37.7126 37.1586 37.5185C36.9171 37.3243 36.6094 37.2273 36.2353 37.2273C35.8612 37.2273 35.5535 37.3243 35.312 37.5185C35.0705 37.7126 34.8918 37.9671 34.7758 38.282C34.6598 38.5968 34.6018 38.9366 34.6018 39.3011C34.6018 39.6657 34.6598 40.0043 34.7758 40.3168C34.8918 40.6293 35.0705 40.8814 35.312 41.0732C35.5535 41.2649 35.8612 41.3608 36.2353 41.3608ZM42.7152 36.5455V37.2557H39.7748V36.5455H42.7152ZM40.6555 42V35.7926C40.6555 35.4801 40.7289 35.2197 40.8757 35.0114C41.0225 34.803 41.213 34.6468 41.4474 34.5426C41.6818 34.4384 41.9292 34.3864 42.1896 34.3864C42.3956 34.3864 42.5636 34.4029 42.6939 34.4361C42.8241 34.4692 42.9211 34.5 42.985 34.5284L42.7436 35.2528C42.701 35.2386 42.6418 35.2209 42.566 35.1996C42.4926 35.1783 42.3956 35.1676 42.2748 35.1676C41.9978 35.1676 41.7978 35.2375 41.6747 35.3771C41.5539 35.5168 41.4936 35.7216 41.4936 35.9915V42H40.6555ZM44.1897 42V36.5455H45.0278V42H44.1897ZM44.6158 35.6364C44.4525 35.6364 44.3116 35.5807 44.1933 35.4695C44.0772 35.3582 44.0192 35.2244 44.0192 35.0682C44.0192 34.9119 44.0772 34.7782 44.1933 34.6669C44.3116 34.5556 44.4525 34.5 44.6158 34.5C44.7792 34.5 44.9189 34.5556 45.0349 34.6669C45.1532 34.7782 45.2124 34.9119 45.2124 35.0682C45.2124 35.2244 45.1532 35.3582 45.0349 35.4695C44.9189 35.5807 44.7792 35.6364 44.6158 35.6364ZM47.7008 34.7273V42H46.8627V34.7273H47.7008ZM51.8227 42.1136C51.2972 42.1136 50.8438 41.9976 50.4626 41.7656C50.0839 41.5312 49.7915 41.2045 49.5855 40.7855C49.3819 40.3641 49.2801 39.8741 49.2801 39.3153C49.2801 38.7566 49.3819 38.2642 49.5855 37.8381C49.7915 37.4096 50.0779 37.0758 50.4449 36.8366C50.8142 36.5952 51.2451 36.4744 51.7375 36.4744C52.0216 36.4744 52.3021 36.5218 52.5791 36.6165C52.8561 36.7112 53.1082 36.8651 53.3355 37.0781C53.5628 37.2888 53.7439 37.5682 53.8788 37.9162C54.0138 38.2642 54.0812 38.6927 54.0812 39.2017V39.5568H49.8767V38.8324H53.229C53.229 38.5246 53.1674 38.25 53.0443 38.0085C52.9236 37.767 52.7508 37.5765 52.5259 37.4368C52.3033 37.2971 52.0405 37.2273 51.7375 37.2273C51.4037 37.2273 51.1149 37.3101 50.871 37.4759C50.6295 37.6392 50.4437 37.8523 50.3135 38.1151C50.1833 38.3778 50.1182 38.6596 50.1182 38.9602V39.4432C50.1182 39.8551 50.1892 40.2043 50.3312 40.4908C50.4757 40.7749 50.6757 40.9915 50.9314 41.1406C51.1871 41.2874 51.4842 41.3608 51.8227 41.3608C52.0429 41.3608 52.2418 41.33 52.4193 41.2685C52.5992 41.2045 52.7543 41.1098 52.8845 40.9844C53.0147 40.8565 53.1153 40.6979 53.1864 40.5085L53.996 40.7358C53.9108 41.0104 53.7676 41.2519 53.5663 41.4602C53.3651 41.6662 53.1165 41.8272 52.8206 41.9432C52.5247 42.0568 52.192 42.1136 51.8227 42.1136Z" fill="#919AA6"/>
</svg>
