<svg width="78" height="55" viewBox="0 0 78 55" fill="none" xmlns="http://www.w3.org/2000/svg">
<path d="M32.0834 27.5V17.5L38.75 12.5L45.4167 17.5V27.5H40.4167V21.6667H37.0834V27.5H32.0834Z" fill="#DEDEDE"/>
<path d="M24.4673 42V34.7273H25.7848V37.8061H29.1548V34.7273H30.4759V42H29.1548V38.9105H25.7848V42H24.4673ZM34.5312 42.1065C33.9985 42.1065 33.5369 41.9893 33.1462 41.755C32.7556 41.5206 32.4526 41.1927 32.2371 40.7713C32.0241 40.3499 31.9175 39.8575 31.9175 39.294C31.9175 38.7306 32.0241 38.237 32.2371 37.8132C32.4526 37.3894 32.7556 37.0604 33.1462 36.826C33.5369 36.5916 33.9985 36.4744 34.5312 36.4744C35.0638 36.4744 35.5255 36.5916 35.9161 36.826C36.3067 37.0604 36.6086 37.3894 36.8217 37.8132C37.0371 38.237 37.1448 38.7306 37.1448 39.294C37.1448 39.8575 37.0371 40.3499 36.8217 40.7713C36.6086 41.1927 36.3067 41.5206 35.9161 41.755C35.5255 41.9893 35.0638 42.1065 34.5312 42.1065ZM34.5383 41.0767C34.8271 41.0767 35.0686 40.9974 35.2627 40.8388C35.4568 40.6778 35.6013 40.4624 35.696 40.1925C35.793 39.9226 35.8415 39.6219 35.8415 39.2905C35.8415 38.9567 35.793 38.6548 35.696 38.3849C35.6013 38.1127 35.4568 37.8961 35.2627 37.7351C35.0686 37.5741 34.8271 37.4936 34.5383 37.4936C34.2424 37.4936 33.9961 37.5741 33.7996 37.7351C33.6055 37.8961 33.4599 38.1127 33.3629 38.3849C33.2682 38.6548 33.2208 38.9567 33.2208 39.2905C33.2208 39.6219 33.2682 39.9226 33.3629 40.1925C33.4599 40.4624 33.6055 40.6778 33.7996 40.8388C33.9961 40.9974 34.2424 41.0767 34.5383 41.0767ZM38.5359 42V36.5455H39.7646V37.4723H39.8285C39.9422 37.1598 40.1304 36.916 40.3931 36.7408C40.6559 36.5632 40.9696 36.4744 41.3342 36.4744C41.7035 36.4744 42.0148 36.5644 42.2681 36.7443C42.5238 36.9219 42.7038 37.1645 42.8079 37.4723H42.8647C42.9855 37.1693 43.1891 36.9278 43.4755 36.7479C43.7644 36.5656 44.1065 36.4744 44.5018 36.4744C45.0037 36.4744 45.4133 36.633 45.7305 36.9503C46.0477 37.2675 46.2064 37.7304 46.2064 38.3388V42H44.9173V38.5376C44.9173 38.1991 44.8273 37.9517 44.6474 37.7955C44.4675 37.6368 44.2473 37.5575 43.9869 37.5575C43.6768 37.5575 43.4341 37.6546 43.2589 37.8487C43.0861 38.0405 42.9997 38.2902 42.9997 38.598V42H41.739V38.4844C41.739 38.2027 41.6538 37.9777 41.4833 37.8097C41.3153 37.6416 41.0951 37.5575 40.8228 37.5575C40.6382 37.5575 40.4701 37.6049 40.3186 37.6996C40.1671 37.7919 40.0463 37.9233 39.9564 38.0938C39.8664 38.2618 39.8214 38.4583 39.8214 38.6832V42H38.5359ZM50.2253 42.1065C49.6784 42.1065 49.2061 41.9929 48.8084 41.7656C48.413 41.536 48.1088 41.2116 47.8957 40.7926C47.6827 40.3712 47.5761 39.8752 47.5761 39.3047C47.5761 38.7436 47.6827 38.2512 47.8957 37.8274C48.1112 37.4013 48.4118 37.0698 48.7977 36.8331C49.1836 36.594 49.637 36.4744 50.1578 36.4744C50.494 36.4744 50.8112 36.5289 51.1095 36.6378C51.4102 36.7443 51.6753 36.91 51.905 37.1349C52.137 37.3598 52.3193 37.6463 52.4518 37.9943C52.5844 38.34 52.6507 38.7519 52.6507 39.2301V39.6243H48.1798V38.7578H51.4185C51.4161 38.5116 51.3628 38.2926 51.2587 38.1009C51.1545 37.9067 51.0089 37.754 50.8219 37.6428C50.6372 37.5315 50.4218 37.4759 50.1756 37.4759C49.9128 37.4759 49.682 37.5398 49.4831 37.6676C49.2842 37.7931 49.1292 37.9588 49.0179 38.1648C48.909 38.3684 48.8534 38.5921 48.851 38.8359V39.5923C48.851 39.9096 48.909 40.1818 49.025 40.4091C49.141 40.634 49.3032 40.8068 49.5115 40.9276C49.7198 41.0459 49.9637 41.1051 50.243 41.1051C50.4301 41.1051 50.5993 41.0791 50.7509 41.027C50.9024 40.9725 51.0338 40.8932 51.145 40.7891C51.2563 40.6849 51.3403 40.5559 51.3972 40.402L52.5974 40.5369C52.5217 40.8542 52.3773 41.1312 52.1642 41.3679C51.9535 41.6023 51.6836 41.7846 51.3545 41.9148C51.0255 42.0426 50.6491 42.1065 50.2253 42.1065Z" fill="#DEDEDE"/>
</svg>
