<svg width="78" height="55" viewBox="0 0 78 55" fill="none" xmlns="http://www.w3.org/2000/svg">
<path fill-rule="evenodd" clip-rule="evenodd" d="M41 13.25L41.75 14L41.7499 15.5H46.2499V26H31.25V15.5H35.75V14L36.5 13.25H41ZM32.7499 21.0172V24.5H44.75V21.0172C43.2514 21.446 41.7512 21.7142 40.25 21.8214V23H37.25V21.8214C35.7487 21.7142 34.2485 21.446 32.75 21.0173M44.75 17H32.75V19.4528C34.7529 20.068 36.7522 20.375 38.75 20.375C40.7478 20.375 42.747 20.068 44.75 19.4528V17ZM40.25 14.75H37.25V15.5H40.25V14.75Z" fill="#919AA6"/>
<path d="M14.1307 41V33.7273H15.0114V40.2188H18.392V41H14.1307ZM22.158 41.1136C21.6655 41.1136 21.2335 40.9964 20.8618 40.7621C20.4925 40.5277 20.2036 40.1998 19.9953 39.7784C19.7893 39.357 19.6864 38.8646 19.6864 38.3011C19.6864 37.733 19.7893 37.237 19.9953 36.8132C20.2036 36.3894 20.4925 36.0604 20.8618 35.826C21.2335 35.5916 21.6655 35.4744 22.158 35.4744C22.6504 35.4744 23.0813 35.5916 23.4506 35.826C23.8223 36.0604 24.1111 36.3894 24.317 36.8132C24.5254 37.237 24.6295 37.733 24.6295 38.3011C24.6295 38.8646 24.5254 39.357 24.317 39.7784C24.1111 40.1998 23.8223 40.5277 23.4506 40.7621C23.0813 40.9964 22.6504 41.1136 22.158 41.1136ZM22.158 40.3608C22.532 40.3608 22.8398 40.2649 23.0813 40.0732C23.3227 39.8814 23.5015 39.6293 23.6175 39.3168C23.7335 39.0043 23.7915 38.6657 23.7915 38.3011C23.7915 37.9366 23.7335 37.5968 23.6175 37.282C23.5015 36.9671 23.3227 36.7126 23.0813 36.5185C22.8398 36.3243 22.532 36.2273 22.158 36.2273C21.7839 36.2273 21.4761 36.3243 21.2347 36.5185C20.9932 36.7126 20.8144 36.9671 20.6984 37.282C20.5824 37.5968 20.5244 37.9366 20.5244 38.3011C20.5244 38.6657 20.5824 39.0043 20.6984 39.3168C20.8144 39.6293 20.9932 39.8814 21.2347 40.0732C21.4761 40.2649 21.7839 40.3608 22.158 40.3608ZM27.2591 41L25.5972 35.5455H26.4778L27.6568 39.7216H27.7136L28.8784 35.5455H29.7733L30.9239 39.7074H30.9807L32.1597 35.5455H33.0403L31.3784 41H30.5545L29.3614 36.8097H29.2761L28.083 41H27.2591ZM36.4787 41.1136C35.9862 41.1136 35.5542 40.9964 35.1825 40.7621C34.8132 40.5277 34.5243 40.1998 34.316 39.7784C34.11 39.357 34.0071 38.8646 34.0071 38.3011C34.0071 37.733 34.11 37.237 34.316 36.8132C34.5243 36.3894 34.8132 36.0604 35.1825 35.826C35.5542 35.5916 35.9862 35.4744 36.4787 35.4744C36.9711 35.4744 37.402 35.5916 37.7713 35.826C38.143 36.0604 38.4318 36.3894 38.6377 36.8132C38.8461 37.237 38.9502 37.733 38.9502 38.3011C38.9502 38.8646 38.8461 39.357 38.6377 39.7784C38.4318 40.1998 38.143 40.5277 37.7713 40.7621C37.402 40.9964 36.9711 41.1136 36.4787 41.1136ZM36.4787 40.3608C36.8527 40.3608 37.1605 40.2649 37.402 40.0732C37.6434 39.8814 37.8222 39.6293 37.9382 39.3168C38.0542 39.0043 38.1122 38.6657 38.1122 38.3011C38.1122 37.9366 38.0542 37.5968 37.9382 37.282C37.8222 36.9671 37.6434 36.7126 37.402 36.5185C37.1605 36.3243 36.8527 36.2273 36.4787 36.2273C36.1046 36.2273 35.7968 36.3243 35.5554 36.5185C35.3139 36.7126 35.1351 36.9671 35.0191 37.282C34.9031 37.5968 34.8451 37.9366 34.8451 38.3011C34.8451 38.6657 34.9031 39.0043 35.0191 39.3168C35.1351 39.6293 35.3139 39.8814 35.5554 40.0732C35.7968 40.2649 36.1046 40.3608 36.4787 40.3608ZM41.3676 37.7188V41H40.5295V35.5455H41.3392V36.3977H41.4102C41.5381 36.1207 41.7322 35.8982 41.9926 35.7301C42.253 35.5597 42.5892 35.4744 43.0011 35.4744C43.3705 35.4744 43.6936 35.5502 43.9706 35.7017C44.2476 35.8509 44.463 36.0781 44.6169 36.3835C44.7708 36.6866 44.8477 37.0701 44.8477 37.5341V41H44.0097V37.5909C44.0097 37.1624 43.8984 36.8286 43.6759 36.5895C43.4533 36.348 43.1479 36.2273 42.7597 36.2273C42.4921 36.2273 42.253 36.2853 42.0423 36.4013C41.834 36.5173 41.6695 36.6866 41.5487 36.9091C41.428 37.1316 41.3676 37.4015 41.3676 37.7188ZM48.8809 43.1591C48.476 43.1591 48.128 43.107 47.8368 43.0028C47.5456 42.901 47.303 42.7661 47.1088 42.598C46.9171 42.4323 46.7644 42.2547 46.6507 42.0653L47.3184 41.5966C47.3941 41.696 47.49 41.8097 47.606 41.9375C47.722 42.0677 47.8806 42.1802 48.0819 42.2749C48.2855 42.3719 48.5518 42.4205 48.8809 42.4205C49.3212 42.4205 49.6846 42.3139 49.9711 42.1009C50.2575 41.8878 50.4007 41.554 50.4007 41.0994V39.9915H50.3297C50.2682 40.0909 50.1806 40.214 50.0669 40.3608C49.9557 40.5052 49.7947 40.6342 49.584 40.7479C49.3757 40.8591 49.0939 40.9148 48.7388 40.9148C48.2985 40.9148 47.9031 40.8106 47.5527 40.6023C47.2047 40.3939 46.9289 40.0909 46.7253 39.6932C46.5241 39.2955 46.4235 38.8125 46.4235 38.2443C46.4235 37.6856 46.5217 37.1991 46.7182 36.7848C46.9147 36.3681 47.1882 36.0462 47.5385 35.8189C47.8889 35.5893 48.2937 35.4744 48.753 35.4744C49.1081 35.4744 49.3899 35.5336 49.5982 35.652C49.8089 35.768 49.9699 35.9006 50.0811 36.0497C50.1948 36.1965 50.2824 36.3172 50.3439 36.4119H50.4292V35.5455H51.2388V41.1562C51.2388 41.625 51.1323 42.0062 50.9192 42.2997C50.7085 42.5956 50.4244 42.8123 50.0669 42.9496C49.7118 43.0893 49.3165 43.1591 48.8809 43.1591ZM48.8525 40.1619C49.1886 40.1619 49.4727 40.085 49.7047 39.9311C49.9367 39.7772 50.1131 39.5559 50.2338 39.267C50.3546 38.9782 50.415 38.6326 50.415 38.2301C50.415 37.8371 50.3558 37.4903 50.2374 37.1896C50.119 36.889 49.9438 36.6534 49.7118 36.483C49.4798 36.3125 49.1934 36.2273 48.8525 36.2273C48.4973 36.2273 48.2014 36.3172 47.9647 36.4972C47.7303 36.6771 47.5539 36.9186 47.4355 37.2216C47.3195 37.5246 47.2615 37.8608 47.2615 38.2301C47.2615 38.6089 47.3207 38.9439 47.4391 39.2351C47.5598 39.5239 47.7374 39.7512 47.9718 39.9169C48.2085 40.0803 48.5021 40.1619 48.8525 40.1619ZM54.678 41.1278C54.3324 41.1278 54.0187 41.0627 53.737 40.9325C53.4552 40.8 53.2315 40.6094 53.0658 40.3608C52.9001 40.1098 52.8172 39.8068 52.8172 39.4517C52.8172 39.1392 52.8788 38.8859 53.0019 38.6918C53.125 38.4953 53.2895 38.3414 53.4955 38.2301C53.7015 38.1188 53.9287 38.036 54.1773 37.9815C54.4283 37.9247 54.6804 37.8797 54.9337 37.8466C55.2651 37.804 55.5338 37.772 55.7398 37.7507C55.9481 37.727 56.0997 37.688 56.1944 37.6335C56.2914 37.5791 56.3399 37.4844 56.3399 37.3494V37.321C56.3399 36.9706 56.2441 36.6984 56.0523 36.5043C55.8629 36.3101 55.5753 36.2131 55.1894 36.2131C54.7893 36.2131 54.4756 36.3007 54.2483 36.4759C54.0211 36.651 53.8613 36.8381 53.7689 37.0369L52.9735 36.7528C53.1155 36.4214 53.3049 36.1634 53.5417 35.9787C53.7808 35.7917 54.0412 35.6615 54.3229 35.5881C54.607 35.5123 54.8864 35.4744 55.161 35.4744C55.3362 35.4744 55.5374 35.4957 55.7647 35.5384C55.9943 35.5786 56.2157 35.6626 56.4287 35.7905C56.6442 35.9183 56.8229 36.1113 56.9649 36.3693C57.107 36.6274 57.178 36.973 57.178 37.4062V41H56.3399V40.2614H56.2973C56.2405 40.3797 56.1458 40.5064 56.0132 40.6413C55.8807 40.7763 55.7043 40.8911 55.4841 40.9858C55.264 41.0805 54.9953 41.1278 54.678 41.1278ZM54.8059 40.375C55.1373 40.375 55.4167 40.3099 55.6439 40.1797C55.8736 40.0495 56.0464 39.8814 56.1624 39.6754C56.2808 39.4695 56.3399 39.2528 56.3399 39.0256V38.2585C56.3044 38.3011 56.2263 38.3402 56.1056 38.3757C55.9872 38.4089 55.8499 38.4384 55.6936 38.4645C55.5398 38.4882 55.3894 38.5095 55.2426 38.5284C55.0982 38.545 54.981 38.5592 54.8911 38.571C54.6733 38.5994 54.4697 38.6456 54.2803 38.7095C54.0933 38.7711 53.9417 38.8646 53.8257 38.9901C53.7121 39.1132 53.6553 39.2812 53.6553 39.4943C53.6553 39.7855 53.763 40.0057 53.9784 40.1548C54.1962 40.3016 54.4721 40.375 54.8059 40.375ZM59.8457 37.7188V41H59.0077V35.5455H59.8173V36.3977H59.8884C60.0162 36.1207 60.2103 35.8982 60.4707 35.7301C60.7312 35.5597 61.0673 35.4744 61.4793 35.4744C61.8486 35.4744 62.1717 35.5502 62.4487 35.7017C62.7257 35.8509 62.9411 36.0781 63.095 36.3835C63.2489 36.6866 63.3259 37.0701 63.3259 37.5341V41H62.4878V37.5909C62.4878 37.1624 62.3765 36.8286 62.154 36.5895C61.9314 36.348 61.626 36.2273 61.2378 36.2273C60.9703 36.2273 60.7312 36.2853 60.5205 36.4013C60.3121 36.5173 60.1476 36.6866 60.0268 36.9091C59.9061 37.1316 59.8457 37.4015 59.8457 37.7188Z" fill="#919AA6"/>
</svg>
