<svg width="17" height="17" viewBox="0 0 17 17" fill="none" xmlns="http://www.w3.org/2000/svg">
<path fill-rule="evenodd" clip-rule="evenodd" d="M3.54169 6.37508C3.54169 5.06005 4.06408 3.79888 4.99395 2.86901C5.92382 1.93914 7.18499 1.41675 8.50002 1.41675C9.81505 1.41675 11.0762 1.93914 12.0061 2.86901C12.936 3.79888 13.4584 5.06005 13.4584 6.37508V9.04125L14.7489 11.6224C14.8083 11.7412 14.8364 11.8732 14.8304 12.0059C14.8245 12.1386 14.7847 12.2676 14.7148 12.3806C14.645 12.4936 14.5474 12.5868 14.4314 12.6515C14.3154 12.7162 14.1848 12.7501 14.0519 12.7501H11.2441C11.0865 13.358 10.7316 13.8964 10.2349 14.2807C9.73826 14.6651 9.12803 14.8736 8.50002 14.8736C7.87201 14.8736 7.26179 14.6651 6.76513 14.2807C6.26847 13.8964 5.9135 13.358 5.75594 12.7501H2.94811C2.81528 12.7501 2.68465 12.7162 2.56863 12.6515C2.45261 12.5868 2.35504 12.4936 2.28521 12.3806C2.21537 12.2676 2.17558 12.1386 2.16961 12.0059C2.16364 11.8732 2.19169 11.7412 2.25111 11.6224L3.54169 9.04125V6.37508ZM7.27319 12.7501C7.39753 12.9654 7.57637 13.1442 7.79172 13.2686C8.00707 13.3929 8.25136 13.4584 8.50002 13.4584C8.74869 13.4584 8.99297 13.3929 9.20832 13.2686C9.42368 13.1442 9.60251 12.9654 9.72686 12.7501H7.27319ZM8.50002 2.83341C7.56071 2.83341 6.65988 3.20655 5.99569 3.87074C5.33149 4.53494 4.95836 5.43577 4.95836 6.37508V9.04125C4.95834 9.26107 4.90717 9.47787 4.8089 9.6745L3.98015 11.3334H13.0206L12.1919 9.6745C12.0933 9.47793 12.0419 9.26112 12.0417 9.04125V6.37508C12.0417 5.43577 11.6685 4.53494 11.0044 3.87074C10.3402 3.20655 9.43933 2.83341 8.50002 2.83341Z" fill="#DCEAFC"/>
</svg>
