<svg width="13" height="12" viewBox="0 0 13 12" fill="none" xmlns="http://www.w3.org/2000/svg">
<path d="M11.25 1.25H9.26875L8.125 0H4.375L3.23125 1.25H1.25C0.918479 1.25 0.600537 1.3817 0.366116 1.61612C0.131696 1.85054 0 2.16848 0 2.5V10C0 10.3315 0.131696 10.6495 0.366116 10.8839C0.600537 11.1183 0.918479 11.25 1.25 11.25H11.25C11.5815 11.25 11.8995 11.1183 12.1339 10.8839C12.3683 10.6495 12.5 10.3315 12.5 10V2.5C12.5 2.16848 12.3683 1.85054 12.1339 1.61612C11.8995 1.3817 11.5815 1.25 11.25 1.25ZM11.25 10H1.25V2.5H3.78125L4.925 1.25H7.575L8.71875 2.5H11.25V10ZM6.25 3.125C5.4212 3.125 4.62634 3.45424 4.04029 4.04029C3.45424 4.62634 3.125 5.4212 3.125 6.25C3.125 7.0788 3.45424 7.87366 4.04029 8.45971C4.62634 9.04576 5.4212 9.375 6.25 9.375C7.0788 9.375 7.87366 9.04576 8.45971 8.45971C9.04576 7.87366 9.375 7.0788 9.375 6.25C9.375 5.4212 9.04576 4.62634 8.45971 4.04029C7.87366 3.45424 7.0788 3.125 6.25 3.125ZM6.25 8.125C5.75272 8.125 5.27581 7.92746 4.92417 7.57583C4.57254 7.22419 4.375 6.74728 4.375 6.25C4.375 5.75272 4.57254 5.27581 4.92417 4.92417C5.27581 4.57254 5.75272 4.375 6.25 4.375C6.74728 4.375 7.22419 4.57254 7.57583 4.92417C7.92746 5.27581 8.125 5.75272 8.125 6.25C8.125 6.74728 7.92746 7.22419 7.57583 7.57583C7.22419 7.92746 6.74728 8.125 6.25 8.125Z" fill="#98A7B9"/>
</svg>
